<?xml version="1.0" standalone="no"?>
<!DOCTYPE svg PUBLIC "-//W3C//DTD SVG 20010904//EN"
 "http://www.w3.org/TR/2001/REC-SVG-20010904/DTD/svg10.dtd">
<svg version="1.0" xmlns="http://www.w3.org/2000/svg"
 width="145.000000pt" height="145.000000pt" viewBox="0 0 145.000000 145.000000"
 preserveAspectRatio="xMidYMid meet">
<metadata>
Created by potrace 1.11, written by Peter Selinger 2001-2013
</metadata>
<g transform="translate(0.000000,145.000000) scale(0.100000,-0.100000)"
fill="#000000" stroke="none">
<path d="M0 725 l0 -726 278 3 277 3 60 36 c51 30 83 63 113 116 4 7 59 23
122 37 187 41 265 73 382 160 86 63 176 198 194 291 1 6 5 26 9 45 12 57 17
160 9 178 -4 9 -8 24 -10 32 -17 136 -119 299 -233 374 -36 23 -82 50 -101 58
-37 17 -236 51 -249 43 -5 -2 -24 -6 -42 -9 -48 -6 -167 -36 -206 -53 -19 -7
-66 -34 -106 -58 -39 -25 -76 -45 -82 -45 -5 0 -23 22 -38 48 -16 26 -43 63
-60 84 -18 20 -45 52 -60 72 l-28 36 -114 0 -115 0 0 -725z"/>
</g>
</svg>
